<?xml version="1.0" standalone="no"?>
<!DOCTYPE svg PUBLIC "-//W3C//DTD SVG 20010904//EN"
 "http://www.w3.org/TR/2001/REC-SVG-20010904/DTD/svg10.dtd">
<svg version="1.0" xmlns="http://www.w3.org/2000/svg"
 width="300.000000pt" height="297.000000pt" viewBox="0 0 300.000000 297.000000"
 preserveAspectRatio="xMidYMid meet">
<metadata>
Created by potrace 1.10, written by Peter Selinger 2001-2011
</metadata>
<g transform="translate(0.000000,297.000000) scale(0.050000,-0.050000)"
fill="#4e4e4e" stroke="none">
<path d="M2698 5919 c-2490 -222 -3592 -3274 -1820 -5040 996 -992 2677 -1161
3729 -374 33 25 -291 555 -340 555 -6 0 -36 -18 -67 -40 -319 -227 -899 -379
-1350 -353 -1885 108 -2851 2268 -1678 3751 755 955 2186 1139 3158 407 157
-118 386 -337 369 -352 -5 -4 -129 -47 -275 -96 -147 -48 -265 -97 -262 -107
6 -25 1425 -1290 1435 -1280 7 8 401 1899 396 1902 -2 1 -138 -42 -303 -95
-165 -53 -305 -97 -312 -97 -7 0 -56 55 -109 123 -488 622 -1241 1025 -2042
1096 -259 23 -277 23 -529 0z"/>
</g>
</svg>
